{"title":"Holiday 2014 720p Hindi DvDRip x265 HEVC AC3 5.1...Hon3y","uid":10668491,"size":2565659267,"categoryP":"video","categoryS":"hd___movies","magnet":"?xt=urn:btih:4c6673a6edd2aa722658e781feff13e6f6495a09&amp;dn=Holiday+2014+720p+Hindi+DvDRip+x265+HEVC+AC3+5.1...Hon3y&amp;tr=udp%3A%2F%2Ftracker.openbittorrent.com%3A80&amp;tr=udp%3A%2F%2Fopen.demonii.com%3A1337&amp;tr=udp%3A%2F%2Ftracker.coppersurfer.tk%3A6969&amp;tr=udp%3A%2F%2Fexodus.desync.com%3A6969","seeders":4,"leechers":2,"uploader":"honey8ee","files":5,"time":1406838691,"description":"www.imdb.com/title/tt2556308/\n\nSource                                   : DVD9 Thanks EXDR\nFormat                                   : Matroska\nFormat version                           : Version 4 / Version 2\nFile size                                : 2.38 GiB\nDuration                                 : 2h 40mn\nOverall bit rate                         : 2 120 Kbps\n\n\nVideo\nID                                       : 1\nFormat                                   : V_MPEGH/ISO/HEVC\nCodec ID                                 : V_MPEGH/ISO/HEVC\nDuration                                 : 2h 40mn\nBit rate                                 : 1 630 Kbps\nWidth                                    : 1 280 pixels\nHeight                                   : 544 pixels\nDisplay aspect ratio                     : 2.35:1\nFrame rate mode                          : Constant\nFrame rate                               : 23.976 fps\nBits/(Pixel*Frame)                       : 0.098\nStream size                              : 1.83 GiB (77%)\nDefault                                  : Yes\nForced                                   : No\n\nAudio\nID                                       : 2\nFormat                                   : AC-3\nFormat/Info                              : Audio Coding 3\nMode extension                           : CM (complete main)\nFormat settings, Endianness              : Big\nCodec ID                                 : A_AC3\nDuration                                 : 2h 40mn\nBit rate mode                            : Constant\nBit rate                                 : 448 Kbps\nChannel(s)                               : 6 channels\nChannel positions                        : Front: L C R, Side: L R, LFE\nSampling rate                            : 48.0 KHz\nBit depth                                : 16 bits\nCompression mode                         : Lossy\nStream size                              : 515 MiB (21%)\nDefault                                  : Yes\nForced                                   : No\n\nFor Screen Shots:\n &lt;a href=&quot;\nhttp://www.hon3yhd.com/index.php?page=torrent-details&amp;id=4c6673a6edd2aa722658e781feff13e6f6495a09&quot; rel=&quot;nofollow&quot; target=&quot;_NEW&quot;&gt;\nhttp://www.hon3yhd.com/index.php?page=torrent-details&amp;id=4c6673a6edd2aa722658e781feff13e6f6495a09&lt;/a&gt;","torrent":{"xt":"urn:btih:4c6673a6edd2aa722658e781feff13e6f6495a09","amp;dn":"Holiday+2014+720p+Hindi+DvDRip+x265+HEVC+AC3+5.1...Hon3y","amp;tr":["udp%3A%2F%2Ftracker.openbittorrent.com%3A80","udp%3A%2F%2Fopen.demonii.com%3A1337","udp%3A%2F%2Ftracker.coppersurfer.tk%3A6969","udp%3A%2F%2Fexodus.desync.com%3A6969"],"infoHash":"4c6673a6edd2aa722658e781feff13e6f6495a09","infoHashBuffer":{"type":"Buffer","data":[76,102,115,166,237,210,170,114,38,88,231,129,254,255,19,230,246,73,90,9]},"announce":[],"urlList":[]}}